<svg id="Cloud" xmlns="http://www.w3.org/2000/svg" viewBox="0 0 727.04 502.23"><title>cloud</title><path id="Cloud-2" data-name="Cloud" d="M313.88,328.09C312.36,316,299.71,187.4,449,207.43a6.26,6.26,0,0,0,6.12-2.86c12.81-20.28,82.27-122.42,162.37-88.79a6.29,6.29,0,0,0,1,.33c7.91,1.77,104.09,25.46,102.49,133.37a7.18,7.18,0,0,1-.1,1L706.5,332.45a6.25,6.25,0,0,0,6.93,7.3c30.18-3.76,131.66-10,144.54,73.06a3.4,3.4,0,0,0,.07.34c.91,4,18.47,87-76.2,112.63a6.49,6.49,0,0,1-1.7.21l-463.93-3h-.37c-3.57.2-69.61-.84-94.4-74.67a3.25,3.25,0,0,0-3.16-2.24l-35.11.73c-3.06.06-5.84.19-5.17,3.17,5.72,25.29,31.22,116,138,116H779s124.89,6,125-147.8c0-.14,0-.28,0-.42-.36-5.61-9-117.49-134.71-121.66a6.24,6.24,0,0,1-5.94-7.32c2.78-15.84,8.69-54.65,5.73-84.14-.05-.46,1.93,15.34-.28-1.33-1.3-9.75-39.26-113.11-157.12-138.19-.45-.09.33.86-1.38-.14-8.94-5.22-131.65,3.15-179.2,94.81a6.28,6.28,0,0,1-6.61,3.32C400.3,159.08,289.26,148.32,271,295c-.25,2,.76,8-1,9-13.58,7.5-77.46,38.59-92.8,98.22a6.54,6.54,0,0,0-.2,1.59V435c0,14.54-1,17,7,14l36-1c3.37-.15,2.73-10.65,2.71-14-.11-15.55,3.83-57.51,46.76-81.69a7.18,7.18,0,0,1,1.1-.48l40-13.63a6.27,6.27,0,0,0,3.74-8.39h0A6,6,0,0,1,313.88,328.09Z" transform="translate(-176.96 -63.8)"/></svg>