<svg id="Partly_Cloudy" data-name="Partly Cloudy" xmlns="http://www.w3.org/2000/svg" viewBox="0 0 691.76 612.95"><title>partlycloudy</title><path id="Cloud" d="M332.65,440.38c10.84-43.33,66.6-213.46,254-100.12a12.3,12.3,0,0,0,6,1.78c19.83.52,126.33,7.61,129.88,100.24a12.1,12.1,0,0,0,10.77,11.53c26.45,2.9,92.25,16.09,91.21,75.45a11.82,11.82,0,0,0,0,1.33c.71,7.32,5.84,80.66-72.06,85.41l-456,5a12.1,12.1,0,0,1-4-.65c-12.9-4.42-80.17-31.63-56-112,.08-.26.16-.51.25-.76,1.57-4.25,15.89-41.31,43-52a41.49,41.49,0,0,1,6.56-2,12.2,12.2,0,0,0,9.31-15.14l-5.37-19.39a12.12,12.12,0,0,0-16.6-7.88c-27.25,12.1-88,46.19-90,110.1a10.11,10.11,0,0,1-.12,1.34c-1.42,9.55-16,126.68,121.26,145.27a13.54,13.54,0,0,0,1.68.11H758.5s120.41-5,113.06-148a12.09,12.09,0,0,0-.31-2.16c-2.5-10.68-24.67-95.17-101.6-103.32A12.17,12.17,0,0,1,759.36,406c-8-26.07-44-99.59-145.36-98-3,.05-3.75-1.08-6-3-22.08-18.82-147.91-120.61-298,43.41a12.3,12.3,0,0,0-2.29,3.61c-3,7.31-13.14,32.81-15.18,47.79a12.2,12.2,0,0,1-11.63,10.63h0c-7.85,4.06-13.71,8.33-11.08,16.05l7.08,20.82c2.23,6.58,9.7,5.77,16.15,3.19s15.62-.85,27.83-.92A12.2,12.2,0,0,0,332.65,440.38Z" transform="translate(-182.29 -55.05)"/><g id="Sun"><path d="M527.5,242.5l42,16s61-42,93-8c0,0,30,14,24,56l48,26s16-99-52-125C682.5,207.5,612.5,148.5,527.5,242.5Z" transform="translate(-182.29 -55.05)"/><g id="Sun_Strands" data-name="Sun Strands"><path d="M448.5,161.5l43,42s64,24,36-34l-42-44S424.5,102.5,448.5,161.5Z" transform="translate(-182.29 -55.05)"/><path d="M586.63,80.14l-1.3,60.1s26.2,63.13,49.43,3.06l3.43-60.74S613.31,22.31,586.63,80.14Z" transform="translate(-182.29 -55.05)"/><path d="M762,123.39l-39.79,45.05S701.42,233.57,758,202.7l41.84-44.16S819.7,96.47,762,123.39Z" transform="translate(-182.29 -55.05)"/><path d="M787,340.53l60-3s61.09-30.66-.49-49.52l-60.82.92S727.42,318.06,787,340.53Z" transform="translate(-182.29 -55.05)"/></g></g></svg>