<svg id="Raindrop" xmlns="http://www.w3.org/2000/svg" viewBox="0 0 381.29 645.22"><defs><style>.cls-1{fill:#fff;}</style></defs><title>raindrop</title><path id="raindrop-2" data-name="raindrop" d="M517.5,50.5s-42,150-138,296c0,0-105,151-8,273,0,0,28.12,54.49,134.64,74.49A103.27,103.27,0,0,0,552,692.11c30.85-8.32,84.36-27.27,112.47-63.61,0,0,110-90-6-291,0,0-97-162-102-187Z" transform="translate(-330.37 -50.5)"/><path id="Detail" class="cls-1" d="M599,340s25.66,97.08,15.18,156.7c-.64,3.65-1.41,7.16-2.34,10.5-2.11,7.61-2,16.34-5.84,21.8,0,0-21,54-79,109,0,0,103,12,133-110C660,528,682,465,599,340Z" transform="translate(-330.37 -50.5)"/></svg>