<svg id="Raincloud" xmlns="http://www.w3.org/2000/svg" viewBox="0 0 796.29 676.01"><title>raincloud</title><path id="Cloud" d="M190.5,261.5l51,34s-20-85,56-157c0,0,78-74,187-31,0,0,79,34,96,108,0,0,66-38,110-17,0,0,74,22,70,91,0,0,90,9,99,78,0,0,24,88-61,122l-545,4s-107-11-83-135,0-4,0-4,36-55,65-58l-2-13-44-31-3,15s-68,36-70,114c0,0-9,94,68,136,0,0,28,22,70,23l415,1,117-1s106-10,124-115c0,0,18-102-55-152,0,0-33-24-53-24,0,0-7-61-101-101,0,0-57-12-95,3,0,0-48-111-206-110,0,0-169,12-206,179C194.5,220.5,189.5,248.5,190.5,261.5Z" transform="translate(-116.18 -41.49)"/><g id="Raindrops"><path d="M290.5,600.5s-1-31,25-33c0,0,24,0,24,30v52s-6,16-20,16c0,0-28,1-30-22Z" transform="translate(-116.18 -41.49)"/><path d="M492,601.5s-1-31,25-33c0,0,24,0,24,30v52s-6,16-20,16c0,0-28,1-30-22Z" transform="translate(-116.18 -41.49)"/><path d="M390,650.5s-1-31,25-33c0,0,24,0,24,30v52s-6,16-20,16c0,0-28,1-30-22Z" transform="translate(-116.18 -41.49)"/><path d="M590,652.5s-1-31,25-33c0,0,24,0,24,30v52s-6,16-20,16c0,0-28,1-30-22Z" transform="translate(-116.18 -41.49)"/><path d="M692,601.5s-1-31,25-33c0,0,24,0,24,30v52s-6,16-20,16c0,0-28,1-30-22Z" transform="translate(-116.18 -41.49)"/></g></svg>