<svg id="Snowflake" xmlns="http://www.w3.org/2000/svg" viewBox="0 0 493.1 556.87"><title>snowflake</title><g id="Snowflake-2" data-name="Snowflake"><path d="M495.5,180.5s-8-83,16-76c0,0,22-3,22,15l1,68,40-24s20-12,29,4c0,0,10,17-4,27l-64,38,1,115-7,36-25-1-9-32,1-118-62-36s-18-9-10-30c0,0,14-17,34-3l37,24Z" transform="translate(-268.82 -104.08)"/><path d="M682.42,262.49s68.9-47,74.32-22.55c0,0,13.22,17.84-2.56,26.5l-59.13,33.61,40.29,23.51s20.15,11.76,10.45,27.35c0,0-10.09,16.94-25.59,9.48l-64.11-37.81L555.77,378.81,520.84,390l-11.16-22.39,23.72-23.29L637.32,288.4,639,216.73s-.77-20.11,21.49-23.21c0,0,21.64,4.09,19,28.36l-3.23,44Z" transform="translate(-268.82 -104.08)"/><path d="M700.48,465.32s74.46,37.53,55.74,54.09c0,0-9.21,20.21-24.43,10.6l-58-35.44-1,46.64s-.52,23.31-18.86,22.39c0,0-19.71-.62-20.7-17.79l2-74.41-97.79-60.52-26.71-25.13,14.18-20.61,31.87,9.46L656,438.42,719.5,405.2s17.22-10.42,30.71,7.55c0,0,6.9,20.91-15.61,30.35l-40,18.49Z" transform="translate(-268.82 -104.08)"/><path d="M329.32,297.65s-75.81-34.73-57.71-52c0,0,8.44-20.53,24-11.5L355,267.42l-.69-46.64s-.35-23.32,18-23.08c0,0,19.72-.12,21.35,17l.75,74.43,100,56.84L522,370.09l-13.41,21.13L476.37,383,374.8,322.87l-62.25,35.57s-16.81,11.05-31-6.4c0,0-7.68-20.64,14.46-30.92l39.33-20Z" transform="translate(-268.82 -104.08)"/><path d="M536.05,584.5s8.18,83-15.84,76c0,0-22,3.05-22-14.95l-1.15-68-39.95,24.09s-20,12-29-3.94c0,0-10-17,3.94-27l63.91-38.14-1.24-115,6.92-36,25,.95,9.07,32-.75,118L597,568.37s18,9,10.07,30c0,0-14,17-34,3.07L536,577.5Z" transform="translate(-268.82 -104.08)"/><path d="M348.23,499.66s-68.31,47.82-74,23.49c0,0-13.44-17.67,2.23-26.54l58.69-34.34-40.58-23s-20.29-11.51-10.79-27.22c0,0,9.87-17.07,25.47-9.8l64.58,37,99.61-57.48,34.78-11.63,11.44,22.25L496.2,416,393,473.2l-.82,71.68s1,20.1-21.19,23.48c0,0-21.69-3.82-19.34-28.12l2.67-44Z" transform="translate(-268.82 -104.08)"/></g></svg>