<svg id="Snowcloud" xmlns="http://www.w3.org/2000/svg" viewBox="0 0 828.71 695.36"><title>snowcloud</title><path id="Cloud" d="M259.5,620.5l-3,39s-155-23-159-187c0,0-1-127,103-162,0,0-17-141,122-231,0,0,127-84,272-5,0,0,125,79,126,207,0,0,127-20,188,117,0,0,49,83-16,182,0,0-35,77-153,81l-17-38s144,18,162-146c0,0,6-124-124-153,0,0-39-8-79,7,0,0-4-109-22-120,0,0-41-115-167-128,0,0-118-25-213,91,0,0-45,63-36,150,0,0-82,38-97,101,0,0-29,104,50,168Z" transform="translate(-97.5 -40.64)"/><g id="Snowflakes"><g id="Snowflake"><path d="M293.71,604.18s-10.74-11.76-6.27-13.44c0,0,3-3,5.08-.23l8,10.27,3.36-8.25s1.68-4.13,4.89-2.71c0,0,3.48,1.45,2.48,4.58l-5.42,13.14L319.12,625l3.06,6.31L318.25,634l-5.05-3.86L299.83,612l-13.6,1.61a4.4,4.4,0,0,1-5-3.43,4.68,4.68,0,0,1,4.85-4.36l8.4-.58Z" transform="translate(-97.5 -40.64)"/><path d="M331.67,595.28s5.14-15.07,8.76-12c0,0,4.07,1.21,2.65,4.34l-5.18,11.92,8.85-1s4.43-.51,4.73,3c0,0,.41,3.74-2.82,4.38l-14.13,1.58-8.87,20.09-4.06,5.71-4.27-2.14.95-6.28,9.47-20.45-8-11.15a4.41,4.41,0,0,1,.62-6,4.7,4.7,0,0,1,6.16,2.16l4.54,7.09Z" transform="translate(-97.5 -40.64)"/><path d="M357.68,624.19s15.68-2.8,14.72,1.87c0,0,.91,4.15-2.52,4.42L357,631.72l5.19,7.25s2.59,3.62-.32,5.58c0,0-3.08,2.17-5.2-.34l-8.22-11.6-21.88,2-7-.78-.2-4.77,6-2.21,22.48-1.63,5.89-12.36a4.41,4.41,0,0,1,5.56-2.37,4.68,4.68,0,0,1,1.1,6.42l-4,7.42Z" transform="translate(-97.5 -40.64)"/><path d="M281.76,641.13s-15.56,3.39-14.78-1.32c0,0-1.06-4.1,2.35-4.51l12.88-1.72-5.46-7.05s-2.72-3.52.11-5.59c0,0,3-2.28,5.21.15l8.65,11.28,21.79-2.78,7,.52.38,4.76L314,637.3l-22.4,2.47-5.43,12.57a4.4,4.4,0,0,1-5.47,2.57,4.68,4.68,0,0,1-1.33-6.38l3.72-7.55Z" transform="translate(-97.5 -40.64)"/><path d="M346.23,661.25S357,673,352.53,674.68c0,0-3,3-5.08.24l-8-10.25-3.34,8.26s-1.67,4.13-4.88,2.72c0,0-3.48-1.44-2.49-4.58l5.39-13.15-13.38-17.43-3.07-6.29,3.93-2.72,5.05,3.84,13.41,18.11,13.6-1.63a4.39,4.39,0,0,1,5,3.42,4.69,4.69,0,0,1-4.84,4.37l-8.4.59Z" transform="translate(-97.5 -40.64)"/><path d="M307.81,669.82s-4.95,15.14-8.62,12.08c0,0-4.08-1.16-2.7-4.31l5-12-8.84,1.13s-4.41.57-4.77-2.92c0,0-.44-3.74,2.77-4.41l14.11-1.76,8.62-20.2,4-5.76,4.3,2.09-.87,6.28-9.21,20.58,8.1,11a4.41,4.41,0,0,1-.55,6,4.69,4.69,0,0,1-6.18-2.08l-4.64-7Z" transform="translate(-97.5 -40.64)"/></g><g id="Snowflake-2" data-name="Snowflake"><path d="M566.14,556.85s-1.32-13.67,2.63-12.51c0,0,3.62-.5,3.62,2.46l.17,11.2,6.58-4s3.3-2,4.78.66c0,0,1.64,2.8-.66,4.44l-10.54,6.26.17,18.93-1.15,5.93-4.12-.17-1.48-5.26.16-19.43-10.2-5.93a3.79,3.79,0,0,1-1.65-4.94,4,4,0,0,1,5.6-.49l6.09,4Z" transform="translate(-97.5 -40.64)"/><path d="M596.91,570.35s11.35-7.73,12.24-3.72c0,0,2.17,2.94-.42,4.37L599,576.53l6.63,3.87s3.32,1.94,1.72,4.5c0,0-1.66,2.79-4.21,1.56l-10.55-6.22-16.52,9.26-5.75,1.84-1.84-3.69,3.91-3.83,17.11-9.21.28-11.8a3.79,3.79,0,0,1,3.54-3.82,4,4,0,0,1,3.12,4.67l-.53,7.24Z" transform="translate(-97.5 -40.64)"/><path d="M599.88,603.74s12.26,6.18,9.18,8.9c0,0-1.51,3.33-4,1.75l-9.56-5.84-.17,7.68s-.09,3.84-3.1,3.69c0,0-3.25-.1-3.41-2.93l.33-12.25-16.1-10-4.4-4.14,2.34-3.39,5.24,1.55,16.35,10.51L603,593.84a3.78,3.78,0,0,1,5.05,1.24,4,4,0,0,1-2.57,5l-6.59,3Z" transform="translate(-97.5 -40.64)"/><path d="M538.78,576.13s-12.48-5.71-9.5-8.55c0,0,1.39-3.38,4-1.9l9.77,5.48-.12-7.68s0-3.84,3-3.8c0,0,3.25,0,3.51,2.8l.13,12.25L566,584.09l4.55,4-2.21,3.48-5.3-1.36-16.72-9.89L536,586.14a3.8,3.8,0,0,1-5.1-1A4,4,0,0,1,533.3,580l6.48-3.29Z" transform="translate(-97.5 -40.64)"/><path d="M572.81,623.36s1.35,13.66-2.6,12.52c0,0-3.62.5-3.63-2.46l-.19-11.2-6.58,4s-3.29,2-4.77-.65c0,0-1.66-2.8.65-4.45l10.52-6.28L566,595.88l1.14-5.93,4.12.16,1.49,5.26-.12,19.43,10.22,5.9a3.8,3.8,0,0,1,1.66,4.94,4,4,0,0,1-5.6.51l-6.1-3.94Z" transform="translate(-97.5 -40.64)"/><path d="M541.89,609.39s-11.24,7.88-12.19,3.87c0,0-2.21-2.91.37-4.37l9.66-5.65-6.68-3.79s-3.34-1.89-1.77-4.48c0,0,1.62-2.81,4.19-1.62l10.63,6.1L562.5,590l5.73-1.91,1.88,3.66-3.86,3.89-17,9.42-.13,11.8a3.79,3.79,0,0,1-3.49,3.86,4,4,0,0,1-3.19-4.63l.45-7.24Z" transform="translate(-97.5 -40.64)"/></g><g id="Snowflake-3" data-name="Snowflake"><path d="M450.06,618.89s-1.95-20.23,3.9-18.52c0,0,5.36-.73,5.36,3.65l.25,16.58,9.75-5.85s4.87-2.93,7.07,1c0,0,2.43,4.15-1,6.59l-15.6,9.26.24,28-1.7,8.77-6.1-.24-2.19-7.8.24-28.76-15.11-8.78a5.61,5.61,0,0,1-2.43-7.31,6,6,0,0,1,8.28-.73l9,5.85Z" transform="translate(-97.5 -40.64)"/><path d="M495.62,638.88s16.8-11.45,18.12-5.5c0,0,3.22,4.35-.63,6.46L498.7,648l9.82,5.73s4.91,2.87,2.55,6.67c0,0-2.46,4.13-6.24,2.31l-15.63-9.21-24.45,13.7L456.24,670l-2.72-5.46,5.78-5.68,25.33-13.63.42-17.47a5.61,5.61,0,0,1,5.23-5.65,6,6,0,0,1,4.63,6.91l-.78,10.72Z" transform="translate(-97.5 -40.64)"/><path d="M500,688.32s18.15,9.14,13.59,13.18c0,0-2.24,4.93-5.95,2.59l-14.15-8.64-.26,11.36s-.13,5.69-4.59,5.46c0,0-4.81-.15-5.05-4.33l.49-18.14-23.83-14.75-6.51-6.13,3.45-5,7.77,2.31,24.19,15.55,15.49-8.1a5.62,5.62,0,0,1,7.49,1.84,6,6,0,0,1-3.81,7.4l-9.76,4.51Z" transform="translate(-97.5 -40.64)"/><path d="M409.56,647.45s-18.48-8.47-14.07-12.67c0,0,2.06-5,5.85-2.81l14.46,8.11-.17-11.37s-.08-5.68,4.39-5.62c0,0,4.81,0,5.21,4.14l.18,18.14,24.37,13.86,6.74,5.88-3.27,5.14-7.85-2L420.64,653.6l-15.17,8.67a5.62,5.62,0,0,1-7.55-1.57,6,6,0,0,1,3.53-7.53L411,648.3Z" transform="translate(-97.5 -40.64)"/><path d="M459.94,717.37s2,20.22-3.86,18.53c0,0-5.36.74-5.37-3.65l-.28-16.57-9.73,5.87s-4.87,2.94-7.07-1c0,0-2.45-4.14,1-6.58l15.58-9.3-.31-28,1.69-8.78,6.09.23,2.21,7.8-.18,28.76,15.13,8.74a5.62,5.62,0,0,1,2.46,7.31,6,6,0,0,1-8.29.75l-9-5.83Z" transform="translate(-97.5 -40.64)"/><path d="M414.16,696.69s-16.65,11.65-18,5.72c0,0-3.28-4.31.54-6.47L411,687.57l-9.89-5.6s-4.95-2.81-2.63-6.64c0,0,2.4-4.16,6.21-2.39l15.74,9,24.28-14,8.47-2.83,2.79,5.42-5.71,5.75-25.15,14-.2,17.47a5.62,5.62,0,0,1-5.17,5.72,6,6,0,0,1-4.71-6.85l.65-10.73Z" transform="translate(-97.5 -40.64)"/></g><g id="Snowflake-4" data-name="Snowflake"><path d="M686.11,626.08S694,612.26,697,616c0,0,3.76,2,1.77,4.77l-7.35,10.71,8.89.67s4.44.34,4.08,3.82c0,0-.32,3.76-3.61,3.77L686.6,638.6l-12.53,18L669,661.48l-3.78-2.92,2.12-6,13.18-18.28-5.69-12.46a4.41,4.41,0,0,1,1.75-5.78,4.7,4.7,0,0,1,5.64,3.29l3.11,7.82Z" transform="translate(-97.5 -40.64)"/><path d="M706.2,659.49s15.92.29,14.07,4.69c0,0,.09,4.24-3.32,3.85L704,666.74l3.69,8.11s1.84,4.06-1.39,5.42c0,0-3.45,1.53-5-1.35l-5.82-13-21.85-2.3-6.67-2.11.73-4.73,6.27-1,22.37,2.75,8.17-11a4.41,4.41,0,0,1,5.91-1.25,4.68,4.68,0,0,1-.17,6.52l-5.35,6.5Z" transform="translate(-97.5 -40.64)"/><path d="M686.63,693.1s7.46,14.07,2.71,14.59c0,0-3.66,2.13-5-1.05l-5.14-11.93-5.31,7.16s-2.65,3.57-5.41,1.41c0,0-3-2.28-1.26-5.06l8.52-11.38-8.56-20.22-1.39-6.87,4.48-1.65,3.93,5,8.43,20.9,13.57,1.83a4.41,4.41,0,0,1,3.95,4.57,4.68,4.68,0,0,1-5.78,3l-8.28-1.54Z" transform="translate(-97.5 -40.64)"/><path d="M647.27,626s-8-13.78-3.26-14.47c0,0,3.59-2.27,5,.86l5.57,11.73,5-7.35s2.52-3.67,5.36-1.61c0,0,3.09,2.16,1.45,5l-8.1,11.69,9.31,19.89,1.65,6.81-4.42,1.81-4.11-4.84L651.58,635,638,633.63a4.4,4.4,0,0,1-4.12-4.42A4.69,4.69,0,0,1,639.5,626l8.33,1.23Z" transform="translate(-97.5 -40.64)"/><path d="M647.84,693.53S640,707.37,637,703.64c0,0-3.76-1.95-1.78-4.76l7.32-10.73-8.88-.65s-4.45-.33-4.09-3.82c0,0,.31-3.75,3.59-3.77l14.18,1.1L659.81,663l5.06-4.85,3.79,2.91-2.11,6-13.14,18.32,5.71,12.44a4.4,4.4,0,0,1-1.74,5.78,4.67,4.67,0,0,1-5.63-3.27l-3.14-7.82Z" transform="translate(-97.5 -40.64)"/><path d="M627.93,659.58s-15.93-.08-14.14-4.51c0,0-.14-4.24,3.28-3.89L630,652.31l-3.79-8.07s-1.89-4,1.32-5.43c0,0,3.43-1.57,5.06,1.28l6,12.9,21.87,2,6.71,2-.68,4.74-6.25,1.09-22.4-2.47-8,11.08a4.41,4.41,0,0,1-5.9,1.32,4.68,4.68,0,0,1,.09-6.52l5.28-6.56Z" transform="translate(-97.5 -40.64)"/></g></g></svg>