<svg id="Wind" xmlns="http://www.w3.org/2000/svg" viewBox="0 0 731.53 540.69"><title>wind</title><g id="Wind-2" data-name="Wind"><path d="M167.5,262.5l1,57,310-2s87,19,118-82c0,0,24-108-93-134,0,0-111-9-121,109h55s5-69,68-51c0,0,54,15,33,73,0,0-18,30-35,33Z" transform="translate(-111 -101.34)"/><path d="M111,370v55l632,1s108,3,99-128c0,0-14.5-94.5-126.5-86.5,0,0-77,16-89,105l53-1s21-82,91-38c0,0,23,25,17,47,0,0,0,36-34,48Z" transform="translate(-111 -101.34)"/><path d="M274,479v57l380-2s35.5,6.5,24.5,39.5c0,0-13,25-41,10,0,0-11-9-11-19l-56-2s7,79,82,79c0,0,83,14,82-102,0,0-8-48-69-57Z" transform="translate(-111 -101.34)"/></g></svg>